<?xml version="1.0" encoding="utf-8"?>
<!-- Generator: Adobe Illustrator 24.2.0, SVG Export Plug-In . SVG Version: 6.00 Build 0)  -->
<svg version="1.1" id="Layer_1" xmlns="http://www.w3.org/2000/svg" xmlns:xlink="http://www.w3.org/1999/xlink" x="0px" y="0px"
	 viewBox="0 0 340.2 113.4" style="enable-background:new 0 0 340.2 113.4;" xml:space="preserve">
<style type="text/css">
	.st0{fill:#003459;}
</style>
<path class="st0" d="M33.5,28.3v16.3h11.6v2.4H30.7V28.3H33.5z M58.9,28.3v18.8h14.4v-2.4H61.8v-5.9h10.9v-2.4H61.8v-5.6h11.5v-2.4
	H58.9z M101.2,28.3l-6.4,15.5l-6.4-15.5h-3.1l8.1,18.8h2.8l8.1-18.8H101.2z M116.2,28.3v18.8h14.4v-2.4h-11.5v-5.9H130v-2.4h-10.9
	v-5.6h11.5v-2.4H116.2z M161.3,47.1l-5-8.5c2.6-0.7,4.3-2.6,4.3-5.2c0-3-2.7-5.1-6.3-5.1h-8.8v18.8h2.8v-8.2h5.2l4.6,8.2H161.3z
	 M148.2,30.8h6c1.9,0,3.4,1.1,3.4,2.7c0,1.7-1.4,3-3.4,3h-6V30.8z M188.3,28.3v8h-10.4v-8h-2.8v18.8h2.8v-8.3h10.4v8.3h2.8V28.3
	H188.3z M220.4,28.3v11.1c0,3.4-2.9,5.4-5.8,5.4c-2.9,0-5.8-2.1-5.8-5.4V28.3h-2.8v11.1c0,4.9,4.1,7.9,8.7,7.9
	c4.6,0,8.6-2.9,8.6-7.9V28.3H220.4z M238,28.3v18.8h14.5v-2.4h-11.6V28.3H238z M280.2,28.3l-5.8,7.9l-5.8-7.9h-2.4v18.8h2.8v-14
	l5,6.8h0.7l5-6.8v14h2.8V28.3H280.2z M297.4,28.3v18.8h14.4v-2.4h-11.5v-5.9h10.9v-2.4h-10.9v-5.6h11.5v-2.4H297.4z M28.3,65.9v2.4
	h8.1v16.3h2.8V68.4h8.1v-2.4H28.3z M74.1,84.7l-5-8.5c2.6-0.7,4.3-2.6,4.3-5.2c0-3-2.7-5.1-6.3-5.1h-8.8v18.8H61v-8.2h5.2l4.6,8.2
	H74.1z M61,68.4h6c1.9,0,3.4,1.1,3.4,2.7c0,1.7-1.4,3-3.4,3h-6V68.4z M100.6,65.9V77c0,3.4-2.9,5.4-5.8,5.4C92,82.4,89,80.4,89,77
	V65.9h-2.8V77c0,4.9,4.1,7.9,8.7,7.9c4.6,0,8.6-3,8.6-7.9V65.9H100.6z M124.1,82.6c-3.5,0-5.8-1.6-6-4.6h-3c0.1,4.3,3.5,7.1,9,7.1
	c4.7,0,7.7-2.1,7.7-5.5c0-4.2-4.6-5.1-7.5-5.6c-4.4-0.8-5.4-1.7-5.4-3.2c0-1.8,1.6-2.7,4.4-2.7c3.4,0,5.2,1.3,5.3,3.9h3
	c-0.1-4-3.2-6.3-8.2-6.3c-4.6,0-7.5,1.9-7.5,5.4c0,3.6,2.9,4.4,7.7,5.4c3.3,0.7,5.3,1.1,5.3,3.2C128.8,81.5,126.9,82.6,124.1,82.6
	 M143.8,65.9v2.4h8.1v16.3h2.8V68.4h8.1v-2.4H143.8z M175.1,84.7h136.7v-2.4H175.1V84.7z"/>
</svg>
