<?xml version="1.0" standalone="no"?>
<!DOCTYPE svg PUBLIC "-//W3C//DTD SVG 20010904//EN"
 "http://www.w3.org/TR/2001/REC-SVG-20010904/DTD/svg10.dtd">
<svg version="1.0" xmlns="http://www.w3.org/2000/svg"
 width="1088.000000pt" height="1088.000000pt" viewBox="0 0 1088.000000 1088.000000"
 preserveAspectRatio="xMidYMid meet">
<metadata>
Created by potrace 1.11, written by Peter Selinger 2001-2013
</metadata>
<g transform="translate(0.000000,1088.000000) scale(0.100000,-0.100000)"
fill="#000000" stroke="none">
<path d="M5374 10867 c-26 -15 -107 -70 -114 -77 -3 -3 -45 -32 -95 -65 -49
-33 -92 -63 -95 -66 -5 -6 -169 -116 -198 -134 -9 -5 -19 -12 -22 -15 -6 -6
-83 -60 -115 -80 -13 -8 -52 -35 -87 -60 -34 -24 -97 -67 -138 -94 -41 -28
-84 -58 -94 -68 -10 -9 -23 -15 -28 -12 -4 3 -8 1 -8 -4 0 -7 -50 -43 -148
-107 -9 -5 -25 -18 -36 -27 -11 -10 -23 -18 -27 -18 -4 0 -14 -6 -21 -12 -8
-7 -21 -17 -30 -23 -20 -12 -64 -42 -200 -137 -53 -37 -101 -68 -107 -68 -5 0
-11 -4 -13 -8 -1 -5 -55 -44 -118 -87 -63 -43 -117 -80 -120 -84 -3 -3 -17
-12 -32 -20 -15 -8 -36 -21 -46 -30 -10 -9 -25 -20 -34 -26 -29 -18 -253 -170
-258 -175 -5 -5 -42 -31 -86 -60 -109 -72 -242 -164 -280 -195 -18 -14 -35
-25 -38 -25 -7 0 -67 -41 -76 -51 -3 -3 -25 -19 -50 -34 -25 -15 -47 -31 -50
-34 -3 -3 -41 -30 -85 -60 -133 -90 -259 -176 -270 -184 -51 -39 -388 -267
-395 -267 -5 0 -10 -4 -12 -9 -3 -7 -46 -38 -107 -76 -9 -6 -35 -24 -57 -40
-23 -17 -50 -36 -60 -42 -11 -7 -59 -41 -108 -75 -49 -35 -103 -71 -120 -82
-17 -10 -61 -40 -98 -67 -37 -27 -72 -49 -78 -49 -5 0 -10 -4 -10 -8 0 -5 -17
-18 -39 -30 -21 -12 -44 -29 -51 -37 -7 -8 -16 -12 -21 -9 -5 3 -9 0 -9 -5 0
-6 -7 -11 -16 -11 -8 0 -12 -4 -9 -10 3 -5 1 -10 -5 -10 -19 0 -169 -110 -174
-128 -3 -9 -8 -145 -11 -302 -7 -340 -12 -563 -20 -925 -25 -1113 -27 -1233
-29 -1402 0 -90 -5 -163 -9 -163 -4 0 -3 -8 2 -19 6 -10 8 -21 5 -24 -3 -3 -8
-128 -10 -279 -3 -150 -7 -340 -10 -423 -2 -82 -4 -159 -3 -170 0 -11 0 -24 0
-30 -1 -34 -11 -476 -16 -720 -3 -159 -8 -352 -10 -428 l-5 -138 29 -29 c15
-17 36 -30 45 -30 9 0 16 -4 16 -10 0 -5 4 -10 9 -10 8 0 131 -71 191 -110 8
-5 29 -17 45 -25 17 -8 44 -24 60 -35 17 -11 36 -23 44 -26 7 -4 64 -37 125
-73 61 -36 123 -72 138 -80 16 -8 28 -18 28 -23 0 -4 9 -8 19 -8 11 0 21 -4
23 -8 1 -4 59 -41 128 -81 69 -39 132 -76 140 -81 92 -56 152 -90 160 -90 6 0
10 -4 10 -9 0 -5 8 -11 17 -14 18 -6 73 -37 83 -47 3 -3 20 -13 38 -22 17 -10
47 -26 64 -35 18 -10 35 -20 38 -23 3 -3 17 -11 33 -19 15 -8 27 -18 27 -23 0
-4 8 -8 18 -8 10 0 28 -9 40 -20 12 -11 24 -20 28 -20 3 0 43 -22 89 -50 46
-27 88 -50 94 -50 6 0 11 -4 11 -9 0 -5 10 -13 22 -17 12 -3 26 -11 32 -16 19
-16 198 -118 207 -118 5 0 9 -3 9 -7 0 -5 26 -21 58 -38 31 -16 59 -33 62 -36
3 -3 21 -14 40 -25 19 -10 43 -25 53 -33 9 -8 17 -10 17 -6 0 4 8 1 18 -7 16
-15 257 -159 277 -167 6 -2 18 -10 28 -19 9 -8 17 -12 17 -8 0 3 19 -7 42 -24
22 -16 47 -30 55 -30 7 0 13 -4 13 -8 0 -5 18 -16 40 -26 22 -10 40 -22 40
-27 0 -5 5 -9 10 -9 10 0 319 -178 330 -190 3 -3 16 -11 30 -17 14 -7 43 -24
65 -37 70 -44 75 -47 75 -41 0 3 9 -2 19 -12 11 -10 37 -27 58 -38 21 -11 88
-50 150 -87 62 -38 117 -68 122 -68 6 0 11 -4 11 -9 0 -5 8 -11 18 -14 9 -4
40 -20 67 -36 28 -17 79 -47 115 -67 36 -21 67 -41 68 -46 2 -4 7 -8 11 -8 5
0 93 -50 196 -110 103 -61 191 -110 196 -110 5 0 9 -4 9 -10 0 -5 7 -10 15
-10 8 0 15 -4 15 -9 0 -5 8 -11 18 -14 9 -3 40 -20 67 -36 28 -17 59 -35 70
-41 11 -6 34 -19 50 -29 44 -29 110 -26 163 7 66 42 401 245 430 262 15 8 69
41 119 73 51 31 95 57 98 57 3 0 11 5 18 11 14 12 192 121 287 175 36 21 67
40 70 44 3 4 10 9 15 11 6 2 35 19 65 37 251 150 336 202 346 210 5 5 32 22
60 37 27 15 60 35 74 45 14 9 32 20 40 24 8 3 35 20 60 36 25 16 65 41 90 55
66 37 84 49 92 60 5 7 8 7 8 0 0 -6 3 -6 8 1 8 12 211 134 223 134 5 0 9 5 9
10 0 6 7 10 15 10 8 0 15 5 15 10 0 6 4 10 10 10 5 0 56 28 112 63 57 35 114
70 128 78 14 8 27 16 30 19 3 3 19 12 35 20 17 8 32 18 35 21 3 3 20 15 39 25
18 10 41 24 50 29 9 6 49 30 89 54 40 24 75 48 78 52 3 5 10 7 15 4 5 -4 9 -1
9 4 0 6 7 11 15 11 8 0 15 5 15 10 0 6 5 10 11 10 6 0 42 20 80 45 38 24 69
41 69 37 0 -4 4 -2 8 3 7 10 189 125 198 125 2 0 27 16 54 35 27 19 52 35 54
35 9 0 131 74 144 87 8 7 18 11 23 8 5 -4 9 -2 9 3 0 5 22 21 50 36 27 15 55
32 63 39 7 7 34 23 60 36 26 13 47 28 47 32 0 5 5 9 11 9 6 0 42 19 80 42 39
24 78 48 88 53 11 6 25 16 32 22 8 5 34 22 59 35 25 14 106 63 180 108 74 46
147 90 162 99 197 117 262 158 273 175 10 16 12 59 10 171 -5 207 -16 813 -20
1087 -1 124 -6 231 -9 237 -4 5 -2 12 4 16 7 4 7 12 0 25 -7 13 -7 21 0 25 6
4 7 11 4 17 -4 6 -8 113 -10 237 -2 124 -6 350 -9 501 -3 151 -6 281 -5 288 0
6 0 18 1 25 0 6 -2 138 -6 292 -3 154 -7 389 -9 521 -2 133 -7 247 -10 253 -4
6 -3 11 2 11 6 0 8 8 6 18 -9 46 -11 92 -2 92 5 0 6 5 2 11 -3 6 -8 91 -9 188
-12 762 -18 977 -26 992 -8 16 -93 79 -105 79 -3 0 -14 9 -26 20 -12 11 -34
26 -50 32 -15 7 -28 16 -28 20 0 5 -6 8 -14 8 -8 0 -16 3 -18 8 -4 10 -187
132 -198 132 -4 0 -10 4 -12 8 -1 5 -43 35 -93 67 -49 33 -91 63 -93 67 -2 4
-8 8 -12 8 -5 0 -65 38 -134 85 -69 47 -130 85 -135 85 -5 0 -11 4 -13 8 -1 5
-165 116 -363 248 -198 131 -362 241 -365 244 -10 11 -55 37 -64 38 -5 0 -12
4 -15 9 -9 15 -247 173 -259 173 -6 0 -12 4 -14 9 -1 5 -147 105 -323 222
-176 117 -321 217 -323 221 -2 4 -8 8 -14 8 -11 0 -222 141 -226 152 -2 5 -8
6 -13 2 -5 -3 -9 -1 -9 4 0 5 -16 17 -35 28 -19 10 -35 22 -35 26 0 5 -5 8
-10 8 -10 0 -100 59 -132 88 -10 8 -18 11 -18 6 0 -5 -4 -4 -8 2 -4 6 -41 33
-82 60 -41 26 -76 52 -78 56 -2 5 -10 8 -18 8 -8 0 -14 5 -14 10 0 6 -4 10
-10 10 -11 0 -103 62 -108 73 -2 4 -8 7 -14 7 -6 0 -27 14 -48 30 -21 17 -42
30 -48 30 -5 0 -15 7 -22 15 -7 8 -34 27 -61 42 -27 14 -49 29 -49 32 0 4 -20
17 -45 31 -25 14 -45 28 -45 32 0 5 -7 8 -15 8 -8 0 -15 3 -15 8 0 4 -27 23
-60 42 -33 19 -60 38 -60 43 0 4 -4 7 -9 7 -6 0 -55 32 -111 70 -56 39 -103
70 -105 70 -7 0 -140 94 -146 103 -3 5 -8 7 -10 6 -4 -3 -58 30 -69 41 -21 22
-182 120 -197 120 -10 0 -27 -6 -39 -13z"/>
</g>
</svg>
