<svg xmlns="http://www.w3.org/2000/svg" viewBox="0 0 235.7 81.96"><defs><style>.cls-1{fill:#268a60;}.cls-2{fill:#227c56;}.cls-3{fill:#35c186;}.cls-4{fill:#1e6e45;}.cls-5{fill:#31b37d;}.cls-6{fill:#26827b;stroke:#fff;stroke-linecap:round;stroke-miterlimit:12;stroke-width:0.25px;}.cls-7{fill:#227582;}</style></defs><g id="IKO_graphic_shaded_copy" data-name="IKO graphic shaded copy"><path class="cls-1" d="M121,26.26c.12,0,7,.42,7,.42l.12,3.75-7.2-4.22"/><polygon class="cls-2" points="127.94 26.75 135.03 26.11 128.09 30.43 127.94 26.75"/><polygon class="cls-3" points="132.6 18.55 135.12 18.39 135.23 25.7 132.6 18.55"/><polygon class="cls-4" points="132.6 18.63 128.01 26.72 135.23 26.1 132.6 18.63"/><polyline class="cls-1" points="123.33 18.61 132.55 18.51 127.99 26.59 123.23 18.58"/><polygon class="cls-5" points="123.24 18.72 120.9 26.21 127.87 26.66 123.24 18.72"/><polygon class="cls-3" points="121.05 18.5 123.15 18.63 120.95 25.83 121.05 18.5"/><polyline class="cls-5" points="127.82 13.81 123.17 18.52 121.22 18.34 127.89 13.7"/><polygon class="cls-1" points="127.99 13.66 132.49 18.43 123.28 18.52 127.99 13.66"/><polyline class="cls-3" points="132.5 18.39 134.87 18.27 128.18 13.76"/><line class="cls-6" x1="128.03" y1="13.6" x2="135.14" y2="18.35"/><line class="cls-6" x1="127.98" y1="26.72" x2="135.25" y2="26.09"/><line class="cls-6" x1="127.98" y1="26.71" x2="132.62" y2="18.51"/><line class="cls-6" x1="132.62" y1="18.51" x2="135.11" y2="18.35"/><line class="cls-6" x1="135.29" y1="26.09" x2="135.14" y2="18.35"/><line class="cls-6" x1="128.11" y1="30.44" x2="135.29" y2="26.09"/><line class="cls-6" x1="127.97" y1="26.68" x2="123.23" y2="18.58"/><line class="cls-6" x1="123.23" y1="18.58" x2="132.62" y2="18.51"/><line class="cls-6" x1="123.23" y1="18.58" x2="128.03" y2="13.6"/><line class="cls-6" x1="121.05" y1="18.4" x2="128.03" y2="13.6"/><line class="cls-6" x1="121.05" y1="18.4" x2="120.87" y2="26.21"/><line class="cls-6" x1="121.05" y1="18.4" x2="123.23" y2="18.58"/><line class="cls-6" x1="123.23" y1="18.58" x2="120.87" y2="26.21"/><line class="cls-6" x1="128.03" y1="13.6" x2="132.62" y2="18.51"/><line class="cls-6" x1="132.62" y1="18.51" x2="135.25" y2="26.09"/><line class="cls-6" x1="120.87" y1="26.21" x2="128.08" y2="30.44"/><line class="cls-6" x1="127.98" y1="26.71" x2="120.89" y2="26.21"/><line class="cls-6" x1="127.98" y1="26.72" x2="128.09" y2="30.43"/></g><g id="radical_plain" data-name="radical plain"><path class="cls-7" d="M38.78,32.22l1.8,6H15.38a6.45,6.45,0,0,0-6,6v18h-6v-30h6v5.52a6,6,0,0,1,6-5.52Z"/><path class="cls-7" d="M35.78,38.22l1.8-6h30a9,9,0,0,1,9,9v21h-33a9,9,0,0,1,0-18h27v-3a3,3,0,0,0-3-3Zm34.8,18v-6h-27a3,3,0,0,0,0,6Z"/><path class="cls-7" d="M112,32.22v-12h6v42H85a9,9,0,0,1-9-9v-12a9,9,0,0,1,9-9Zm-30,21a3,3,0,0,0,3,3h27v-18H85a3,3,0,0,0-3,3Z"/><path class="cls-7" d="M125,32.22h6v30h-6Z"/><path class="cls-7" d="M136.38,41.22a9,9,0,0,1,9-9h30l1.8,6h-31.8a3,3,0,0,0-3,3v12a3,3,0,0,0,3,3h31.8l-1.2,6h-30.6a9,9,0,0,1-9-9Z"/><path class="cls-7" d="M169.38,38.22l1.8-6h30a9,9,0,0,1,9,9v21h-33a9,9,0,0,1,0-18h27v-3a3,3,0,0,0-3-3Zm34.8,18v-6h-27a3,3,0,0,0,0,6Z"/><path class="cls-7" d="M210.18,20.22h6v33a3,3,0,0,0,3,3h12.6l-1.8,6h-10.8a9,9,0,0,1-9-9Z"/></g></svg>