<svg xmlns="http://www.w3.org/2000/svg" viewBox="0 0 14.67 17.09"><defs><style>.cls-1{fill:#268a60;}.cls-2{fill:#227c56;}.cls-3{fill:#35c186;}.cls-4{fill:#1e6e45;}.cls-5{fill:#31b37d;}.cls-6{fill:#26827b;stroke:#fff;stroke-linecap:round;stroke-miterlimit:12;stroke-width:0.25px;}</style></defs><g id="Layer_2" data-name="Layer 2"><g id="IKO_graphic_shaded_copy" data-name="IKO graphic shaded copy"><path class="cls-1" d="M.21,12.78c.13,0,7,.42,7,.42L7.35,17,.14,12.73"/><polygon class="cls-2" points="7.2 13.28 14.28 12.64 7.35 16.95 7.2 13.28"/><polygon class="cls-3" points="11.85 5.08 14.37 4.91 14.48 12.22 11.85 5.08"/><polygon class="cls-4" points="11.85 5.16 7.27 13.25 14.49 12.62 11.85 5.16"/><polyline class="cls-1" points="2.59 5.13 11.81 5.04 7.24 13.12 2.48 5.1"/><polygon class="cls-5" points="2.5 5.25 0.15 12.73 7.13 13.19 2.5 5.25"/><polygon class="cls-3" points="0.3 5.02 2.41 5.16 0.2 12.36 0.3 5.02"/><polyline class="cls-5" points="7.08 0.34 2.43 5.04 0.47 4.87 7.14 0.22"/><polygon class="cls-1" points="7.24 0.19 11.74 4.96 2.54 5.04 7.24 0.19"/><polyline class="cls-3" points="11.76 4.91 14.13 4.8 7.43 0.28"/><line class="cls-6" x1="7.29" y1="0.13" x2="14.4" y2="4.88"/><line class="cls-6" x1="7.24" y1="13.25" x2="14.51" y2="12.62"/><line class="cls-6" x1="7.24" y1="13.23" x2="11.88" y2="5.04"/><line class="cls-6" x1="11.88" y1="5.04" x2="14.36" y2="4.88"/><line class="cls-6" x1="14.54" y1="12.62" x2="14.4" y2="4.88"/><line class="cls-6" x1="7.37" y1="16.97" x2="14.54" y2="12.62"/><line class="cls-6" x1="7.22" y1="13.2" x2="2.48" y2="5.1"/><line class="cls-6" x1="2.48" y1="5.1" x2="11.88" y2="5.04"/><line class="cls-6" x1="2.48" y1="5.1" x2="7.29" y2="0.13"/><line class="cls-6" x1="0.3" y1="4.93" x2="7.29" y2="0.13"/><line class="cls-6" x1="0.3" y1="4.93" x2="0.13" y2="12.73"/><line class="cls-6" x1="0.3" y1="4.93" x2="2.48" y2="5.1"/><line class="cls-6" x1="2.48" y1="5.1" x2="0.13" y2="12.73"/><line class="cls-6" x1="7.29" y1="0.13" x2="11.88" y2="5.04"/><line class="cls-6" x1="11.88" y1="5.04" x2="14.51" y2="12.62"/><line class="cls-6" x1="0.13" y1="12.73" x2="7.33" y2="16.97"/><line class="cls-6" x1="7.24" y1="13.23" x2="0.14" y2="12.73"/><line class="cls-6" x1="7.24" y1="13.25" x2="7.35" y2="16.95"/></g></g></svg>